<svg width="10" height="11" viewBox="0 0 10 11" fill="none" xmlns="http://www.w3.org/2000/svg">
<path d="M8.84391 4.24C9.13724 4.24 9.38391 4.34 9.58391 4.54C9.78391 4.72667 9.88391 4.96667 9.88391 5.26C9.88391 5.55333 9.78391 5.8 9.58391 6C9.38391 6.2 9.13724 6.3 8.84391 6.3H6.04391V9.12C6.04391 9.41333 5.94391 9.66 5.74391 9.86C5.54391 10.0467 5.29724 10.14 5.00391 10.14C4.71057 10.14 4.46391 10.0467 4.26391 9.86C4.06391 9.66 3.96391 9.41333 3.96391 9.12V6.3H1.16391C0.870573 6.3 0.623906 6.2 0.423906 6C0.223906 5.8 0.123906 5.55333 0.123906 5.26C0.123906 4.96667 0.223906 4.72667 0.423906 4.54C0.623906 4.34 0.870573 4.24 1.16391 4.24H3.96391V1.42C3.96391 1.12667 4.06391 0.879999 4.26391 0.679999C4.46391 0.48 4.71057 0.38 5.00391 0.38C5.29724 0.38 5.54391 0.48 5.74391 0.679999C5.94391 0.879999 6.04391 1.12667 6.04391 1.42V4.24H8.84391Z" fill="#495057"/>
</svg>
